<?xml version="1.0" encoding="iso-8859-1"?>
<!-- Generator: Adobe Illustrator 17.1.0, SVG Export Plug-In . SVG Version: 6.00 Build 0)  -->
<!DOCTYPE svg PUBLIC "-//W3C//DTD SVG 1.1//EN" "http://www.w3.org/Graphics/SVG/1.1/DTD/svg11.dtd">
<svg xmlns="http://www.w3.org/2000/svg" xmlns:xlink="http://www.w3.org/1999/xlink" version="1.1" id="Capa_1" x="0px" y="0px" viewBox="0 0 375.418 375.418" style="enable-background:new 0 0 375.418 375.418;" xml:space="preserve" width="512px" height="512px">
<g>
	<path d="M255.348,218.284l-38.493-6.036v-67.175c0-15.952-12.978-28.93-28.93-28.93h-0.433   c-15.953,0-28.931,12.978-28.931,28.93v107.881l-39.794-17.055c-7.996-3.427-17.104-2.614-24.366,2.176   c-7.262,4.788-11.597,12.841-11.597,21.539v0.363c0,7.361,3.155,14.389,8.656,19.28l67.102,59.669v28.989   c0,4.143,3.358,7.5,7.5,7.5s7.5-3.357,7.5-7.5V335.56c0-2.142-0.916-4.182-2.516-5.604l-69.618-61.906   c-2.303-2.048-3.624-4.989-3.624-8.071v-0.363c0-3.695,1.77-6.982,4.855-9.017s6.803-2.366,10.2-0.911l50.247,21.534   c0.457,0.196,0.937,0.35,1.435,0.453c0.756,0.157,1.518,0.192,2.263,0.117c0.08-0.008,0.157-0.023,0.236-0.033   c0.16-0.021,0.319-0.042,0.477-0.073c0.13-0.026,0.256-0.061,0.383-0.093c0.104-0.026,0.21-0.05,0.313-0.081   c0.144-0.043,0.284-0.095,0.424-0.146c0.086-0.031,0.173-0.06,0.257-0.094c0.137-0.056,0.269-0.12,0.402-0.184   c0.087-0.041,0.174-0.08,0.259-0.125c0.117-0.062,0.23-0.131,0.343-0.199c0.098-0.058,0.196-0.114,0.291-0.177   c0.093-0.061,0.181-0.128,0.271-0.193c0.109-0.079,0.218-0.157,0.323-0.242c0.073-0.059,0.141-0.123,0.211-0.184   c0.113-0.099,0.226-0.197,0.333-0.303c0.062-0.061,0.119-0.126,0.178-0.189c0.106-0.112,0.212-0.223,0.311-0.342   c0.065-0.078,0.124-0.161,0.186-0.241c0.084-0.109,0.169-0.216,0.247-0.33c0.087-0.127,0.165-0.26,0.244-0.393   c0.044-0.074,0.092-0.145,0.134-0.221c0.36-0.651,0.627-1.36,0.781-2.112c0.104-0.503,0.152-1.01,0.152-1.512V145.073   c0-7.681,6.249-13.93,13.931-13.93h0.433c7.681,0,13.93,6.249,13.93,13.93v72.025c0,0.277,0.017,0.549,0.047,0.818   c-0.396,3.934,2.339,7.537,6.292,8.156l44.881,7.037c0.035,0.006,0.071,0.011,0.106,0.017   c27.148,3.857,47.621,27.444,47.621,54.866v0.766c0,12.69-3.097,25.349-8.957,36.606L271.5,364.453   c-1.912,3.675-0.484,8.203,3.19,10.115c1.106,0.576,2.29,0.85,3.457,0.85c2.708,0,5.323-1.472,6.659-4.039l20.345-39.088   c6.968-13.388,10.651-28.44,10.651-43.532v-0.766c0-16.958-6.122-33.351-17.237-46.158   C287.461,229.042,272.116,220.68,255.348,218.284z" fill="#FFFFFF"/>
	<path d="M231.583,170.476c3.79,1.673,8.217-0.041,9.891-3.83c3.308-7.49,4.985-15.47,4.985-23.716   c0-32.395-26.355-58.75-58.75-58.75s-58.75,26.355-58.75,58.75c0,8.569,1.806,16.834,5.369,24.564   c1.265,2.746,3.979,4.363,6.816,4.363c1.05,0,2.118-0.222,3.134-0.69c3.762-1.733,5.406-6.188,3.672-9.95   c-2.649-5.748-3.992-11.9-3.992-18.287c0-24.124,19.626-43.75,43.75-43.75s43.75,19.626,43.75,43.75   c0,6.146-1.247,12.086-3.707,17.655C226.079,164.374,227.794,168.803,231.583,170.476z" fill="#FFFFFF"/>
	<path d="M254.137,205.937c3.228,2.598,7.948,2.085,10.545-1.141c14.043-17.452,21.777-39.424,21.777-61.866   c0-54.451-44.299-98.75-98.75-98.75s-98.75,44.299-98.75,98.75c0,34.593,17.617,66.068,47.126,84.196   c1.224,0.752,2.58,1.11,3.918,1.11c2.521,0,4.982-1.271,6.398-3.575c2.168-3.529,1.064-8.148-2.465-10.316   c-25.033-15.378-39.978-42.075-39.978-71.415c0-46.18,37.57-83.75,83.75-83.75s83.75,37.57,83.75,83.75   c0,19.311-6.385,37.451-18.464,52.462C250.398,198.619,250.909,203.34,254.137,205.937z" fill="#FFFFFF"/>
	<path d="M85.915,220.426C68.817,198.005,59.78,171.207,59.78,142.93C59.78,72.389,117.168,15,187.709,15   s127.929,57.389,127.929,127.93c0,23.682-6.518,46.807-18.849,66.875c-2.168,3.529-1.065,8.148,2.464,10.316   c3.529,2.169,8.148,1.065,10.316-2.463c13.783-22.433,21.069-48.272,21.069-74.729C330.638,64.118,266.521,0,187.709,0   S44.78,64.118,44.78,142.93c0,31.592,10.1,61.535,29.208,86.592c1.476,1.936,3.709,2.952,5.969,2.952   c1.586,0,3.184-0.5,4.542-1.536C87.792,228.426,88.427,223.72,85.915,220.426z" fill="#FFFFFF"/>
</g>
<g>
</g>
<g>
</g>
<g>
</g>
<g>
</g>
<g>
</g>
<g>
</g>
<g>
</g>
<g>
</g>
<g>
</g>
<g>
</g>
<g>
</g>
<g>
</g>
<g>
</g>
<g>
</g>
<g>
</g>
</svg>
